<svg width="21" height="21" viewBox="0 0 21 21" fill="none" xmlns="http://www.w3.org/2000/svg">
<path d="M1.01328e-06 18H3V15H6V12H9V9H6V6H3V3H4.76837e-07V0H3V3H6V6H9L9 9H12V6H15V3H18V0H21V3H18V6H15V9H12V12H15V15H18V18H21V21H18V18H15V15H12L12 12H9V15H6V18H3V21H4.76837e-07L1.01328e-06 18Z" fill="#E70505"/>
<path d="M9 18H12V19H14V21H12H9H7V19H9V18Z" fill="#D50404"/>
<path d="M18 9H19V7H21V9V12V14H19V12H18V9Z" fill="#D50404"/>
<path d="M9 0H12H14V2H12V3H9V2H7V0H9Z" fill="#D50404"/>
<path d="M0 9V7H2V9H3V12H2V14H0V12V9Z" fill="#D50404"/>
</svg>
