<svg width="600" height="600" viewBox="0 0 600 600" fill="none" xmlns="http://www.w3.org/2000/svg">
<g clip-path="url(#clip0_64_91)">
<rect width="600" height="600" fill="white"/>
<path d="M110 390V340H10V290H35V265H60V240H85V215H160V315H185V340H160V390H110ZM60 315H110V265H85V290H60V315ZM260 390V365H235V340H210V265H235V240H260V215H335V240H360V265H385V340H360V365H335V390H260ZM285 365H335V265H310V240H260V340H285V365ZM510 390V340H410V290H435V265H460V240H485V215H560V315H585V340H560V390H510ZM460 315H510V265H485V290H460V315Z" fill="#4BB4FF"/>
<rect x="272" y="304.222" width="5.55556" height="5.55556" fill="#FF0000"/>
<rect x="294.222" y="282" width="5.55556" height="5.55556" fill="#FF0000"/>
<rect x="288.667" y="309.778" width="5.55556" height="5.55556" fill="#FF0000"/>
<rect x="316.444" y="304.222" width="5.55556" height="5.55556" fill="#FF0000"/>
<rect x="310.889" y="309.778" width="5.55556" height="5.55556" fill="#FF0000"/>
<rect x="310.889" y="304.222" width="5.55556" height="5.55556" fill="#FF0000"/>
<rect x="305.333" y="309.778" width="5.55556" height="5.55556" fill="#FF0000"/>
<rect x="305.333" y="298.667" width="5.55556" height="5.55556" fill="#FF0000"/>
<rect x="299.778" y="304.222" width="5.55556" height="5.55556" fill="#FF0000"/>
<rect x="299.778" y="293.111" width="5.55556" height="5.55556" fill="#FF0000"/>
<rect x="294.222" y="298.667" width="5.55556" height="5.55556" fill="#FF0000"/>
<rect x="299.778" y="309.778" width="5.55556" height="5.55556" fill="#FF0000"/>
<rect x="299.778" y="298.667" width="5.55556" height="5.55556" fill="#FF0000"/>
<rect x="288.667" y="298.667" width="5.55556" height="5.55556" fill="#FF0000"/>
<rect x="277.556" y="298.667" width="5.55556" height="5.55556" fill="#FF0000"/>
<rect x="288.667" y="287.556" width="5.55556" height="5.55556" fill="#FF0000"/>
<rect x="305.333" y="315.333" width="5.55556" height="5.55556" fill="#FF0000"/>
<rect x="305.333" y="293.111" width="5.55556" height="5.55556" fill="#FF0000"/>
<rect x="310.889" y="320.889" width="5.55556" height="5.55556" fill="#FF0000"/>
<rect x="313.667" y="315.333" width="5.55556" height="5.55556" fill="#FF0000"/>
<rect x="310.889" y="298.667" width="5.55556" height="5.55556" fill="#FF0000"/>
<rect x="294.222" y="304.222" width="5.55556" height="5.55556" fill="#FF0000"/>
<rect x="294.222" y="326.444" width="5.55556" height="5.55556" fill="#FF0000"/>
<rect x="299.778" y="320.889" width="5.55556" height="5.55556" fill="#FF0000"/>
<rect x="310.889" y="315.333" width="5.55556" height="5.55556" fill="#FF0000"/>
<rect x="316.444" y="309.778" width="5.55556" height="5.55556" fill="#FF0000"/>
<rect x="313.667" y="293.111" width="5.55556" height="5.55556" fill="#FF0000"/>
<rect x="305.333" y="284.778" width="5.55556" height="5.55556" fill="#FF0000"/>
<rect x="288.667" y="282" width="5.55556" height="5.55556" fill="#FF0000"/>
<rect x="283.111" y="284.778" width="5.55556" height="5.55556" fill="#FF0000"/>
<rect x="283.111" y="287.556" width="5.55556" height="5.55556" fill="#FF0000"/>
<rect x="277.556" y="293.111" width="5.55556" height="5.55556" fill="#FF0000"/>
<rect x="316.444" y="298.667" width="5.55556" height="5.55556" fill="#FF0000"/>
<rect x="305.333" y="320.889" width="5.55556" height="5.55556" fill="#FF0000"/>
<rect x="299.778" y="326.444" width="5.55556" height="5.55556" fill="#FF0000"/>
<rect x="305.333" y="323.667" width="5.55556" height="5.55556" fill="#FF0000"/>
<rect x="288.667" y="326.444" width="5.55556" height="5.55556" fill="#FF0000"/>
<rect x="310.889" y="287.556" width="5.55556" height="5.55556" fill="#FF0000"/>
<rect x="310.889" y="287.556" width="5.55556" height="5.55556" fill="#E70505"/>
<rect x="313.667" y="293.111" width="5.55556" height="5.55556" fill="#E70505"/>
<rect x="316.444" y="298.667" width="5.55556" height="5.55556" fill="#E70505"/>
<rect x="316.444" y="304.222" width="5.55556" height="5.55556" fill="#E70505"/>
<rect x="316.444" y="309.778" width="5.55556" height="5.55556" fill="#E70505"/>
<rect x="316.444" y="315.333" width="2.77778" height="5.55556" fill="#E70505"/>
<rect x="313.667" y="320.889" width="2.77778" height="5.55556" fill="#E70505"/>
<rect x="313.667" y="304.222" width="2.77778" height="5.55556" fill="#E70505"/>
<rect x="313.667" y="298.667" width="2.77778" height="2.77778" fill="#E70505"/>
<rect x="310.889" y="301.444" width="2.77778" height="2.77778" fill="#E70505"/>
<rect x="310.889" y="304.222" width="2.77778" height="2.77778" fill="#E70505"/>
<rect x="310.889" y="307" width="2.77778" height="2.77778" fill="#E70505"/>
<rect x="288.667" y="320.889" width="5.55556" height="5.55556" fill="#FF0000"/>
<rect x="299.778" y="287.556" width="5.55556" height="5.55556" fill="#FF0000"/>
<rect x="305.333" y="287.556" width="5.55556" height="5.55556" fill="#FF0000"/>
<rect x="310.889" y="293.111" width="5.55556" height="5.55556" fill="#FF0000"/>
<rect x="305.333" y="304.222" width="5.55556" height="5.55556" fill="#FF0000"/>
<rect x="283.111" y="304.222" width="5.55556" height="5.55556" fill="#FF0000"/>
<rect x="299.778" y="315.333" width="5.55556" height="5.55556" fill="#FF0000"/>
<rect x="288.667" y="304.222" width="5.55556" height="5.55556" fill="#FF0000"/>
<rect x="294.222" y="309.778" width="5.55556" height="5.55556" fill="#FF0000"/>
<rect x="294.222" y="320.889" width="5.55556" height="5.55556" fill="#FF0000"/>
<rect x="283.111" y="309.778" width="5.55556" height="5.55556" fill="#FF0000"/>
<rect x="288.667" y="315.333" width="5.55556" height="5.55556" fill="#FF0000"/>
<rect x="277.556" y="320.889" width="5.55556" height="5.55556" fill="#FF0000"/>
<rect x="283.111" y="323.667" width="5.55556" height="5.55556" fill="#FF0000"/>
<rect x="283.111" y="315.333" width="5.55556" height="5.55556" fill="#FF0000"/>
<rect x="280.333" y="315.333" width="5.55556" height="5.55556" fill="#FF0000"/>
<rect x="283.111" y="318.111" width="5.55556" height="5.55556" fill="#FF0000"/>
<rect x="294.222" y="315.333" width="5.55556" height="5.55556" fill="#FF0000"/>
<rect x="277.556" y="309.778" width="5.55556" height="5.55556" fill="#FF0000"/>
<rect x="288.667" y="293.111" width="5.55556" height="5.55556" fill="#FF0000"/>
<rect x="283.111" y="298.667" width="5.55556" height="5.55556" fill="#FF0000"/>
<rect x="299.778" y="282" width="5.55556" height="5.55556" fill="#FF0000"/>
<rect x="294.222" y="287.556" width="5.55556" height="5.55556" fill="#FF0000"/>
<rect x="294.222" y="293.111" width="5.55556" height="5.55556" fill="#FF0000"/>
<rect x="277.556" y="304.222" width="5.55556" height="5.55556" fill="#FF0000"/>
<rect x="277.556" y="287.556" width="5.55556" height="5.55556" fill="#FF0000"/>
<rect x="274.778" y="293.111" width="5.55556" height="5.55556" fill="#FF0000"/>
<rect x="272" y="298.667" width="5.55556" height="5.55556" fill="#FF0000"/>
<rect x="272" y="309.778" width="5.55556" height="5.55556" fill="#FF0000"/>
<rect x="274.778" y="315.333" width="5.55556" height="5.55556" fill="#FF0000"/>
<rect x="283.111" y="293.111" width="5.55556" height="5.55556" fill="#FF0000"/>
<rect x="302.556" y="282" width="2.77778" height="2.77778" fill="#E70505"/>
<rect x="308.111" y="284.778" width="2.77778" height="2.77778" fill="#E70505"/>
<rect x="305.333" y="284.778" width="2.77778" height="2.77778" fill="#E70505"/>
<rect x="308.111" y="287.556" width="2.77778" height="2.77778" fill="#E70505"/>
<rect x="313.667" y="293.111" width="2.77778" height="2.77778" fill="#E70505"/>
<rect x="308.111" y="304.222" width="2.77778" height="2.77778" fill="#E70505"/>
<rect x="305.333" y="307" width="2.77778" height="2.77778" fill="#E70505"/>
<rect x="313.667" y="309.778" width="2.77778" height="2.77778" fill="#E70505"/>
<rect x="313.667" y="318.111" width="2.77778" height="2.77778" fill="#E70505"/>
<rect x="310.889" y="312.556" width="2.77778" height="2.77778" fill="#E70505"/>
<rect x="313.667" y="315.333" width="2.77778" height="2.77778" fill="#E70505"/>
<rect x="299.778" y="301.444" width="2.77778" height="2.77778" fill="#D50404"/>
<rect x="302.556" y="304.222" width="2.77778" height="2.77778" fill="#D50404"/>
<rect x="316.444" y="295.889" width="2.77778" height="2.77778" fill="#D50404"/>
<rect x="319.222" y="298.667" width="2.77778" height="2.77778" fill="#D50404"/>
<rect x="313.667" y="290.333" width="2.77778" height="2.77778" fill="#D50404"/>
<rect x="316.444" y="293.111" width="2.77778" height="2.77778" fill="#D50404"/>
<rect x="313.667" y="287.556" width="2.77778" height="2.77778" fill="#D50404"/>
<rect x="316.444" y="298.667" width="2.77778" height="2.77778" fill="#D50404"/>
<rect x="319.222" y="307" width="2.77778" height="2.77778" fill="#D50404"/>
<rect x="319.222" y="304.222" width="2.77778" height="2.77778" fill="#D50404"/>
<rect x="319.222" y="309.778" width="2.77778" height="2.77778" fill="#D50404"/>
<rect x="319.222" y="312.556" width="2.77778" height="2.77778" fill="#D50404"/>
<rect x="319.222" y="301.444" width="2.77778" height="2.77778" fill="#D50404"/>
<rect x="313.667" y="304.222" width="2.77778" height="2.77778" fill="#D50404"/>
<rect x="316.444" y="307" width="2.77778" height="2.77778" fill="#D50404"/>
<rect x="310.889" y="312.556" width="2.77778" height="2.77778" fill="#D50404"/>
<rect x="313.667" y="315.333" width="2.77778" height="2.77778" fill="#D50404"/>
<rect x="310.889" y="323.667" width="2.77778" height="2.77778" fill="#D50404"/>
<rect x="313.667" y="320.889" width="2.77778" height="2.77778" fill="#D50404"/>
<rect x="313.667" y="318.111" width="2.77778" height="2.77778" fill="#D50404"/>
<rect x="316.444" y="318.111" width="2.77778" height="2.77778" fill="#D50404"/>
<rect x="305.333" y="323.667" width="2.77778" height="5.55556" fill="#E70505"/>
<rect x="302.556" y="323.667" width="2.77778" height="5.55556" fill="#E70505"/>
<rect x="310.889" y="315.333" width="2.77778" height="5.55556" fill="#E70505"/>
<rect x="272" y="298.667" width="2.77778" height="5.55556" fill="#E70505"/>
<rect x="274.778" y="298.667" width="2.77778" height="5.55556" fill="#E70505" fill-opacity="0.4"/>
<rect x="274.778" y="304.222" width="2.77778" height="5.55556" fill="#E70505" fill-opacity="0.4"/>
<rect x="274.778" y="309.778" width="2.77778" height="5.55556" fill="#E70505" fill-opacity="0.4"/>
<rect x="283.111" y="323.111" width="2.77778" height="5.55556" fill="#E70505" fill-opacity="0.4"/>
<rect x="280.333" y="323.667" width="2.77778" height="2.77778" fill="#E70505" fill-opacity="0.4"/>
<rect x="277.556" y="318.111" width="2.77778" height="2.77778" fill="#E70505" fill-opacity="0.4"/>
<rect x="277.556" y="293.111" width="2.77778" height="2.77778" fill="#E70505" fill-opacity="0.4"/>
<rect x="274.778" y="307" width="2.77778" height="2.77778" fill="#E70505" fill-opacity="0.5"/>
<rect x="299.778" y="304.222" width="2.77778" height="2.77778" fill="#E70505" fill-opacity="0.5"/>
<rect x="313.667" y="301.444" width="2.77778" height="2.77778" fill="#E70505" fill-opacity="0.5"/>
<rect x="313.667" y="312.556" width="2.77778" height="2.77778" fill="#E70505" fill-opacity="0.5"/>
<rect x="310.889" y="309.778" width="2.77778" height="2.77778" fill="#E70505" fill-opacity="0.5"/>
<rect x="313.667" y="295.889" width="2.77778" height="2.77778" fill="#E70505" fill-opacity="0.5"/>
<rect x="310.889" y="293.111" width="2.77778" height="2.77778" fill="#E70505" fill-opacity="0.5"/>
<rect x="305.333" y="287.556" width="2.77778" height="2.77778" fill="#E70505" fill-opacity="0.5"/>
<rect x="291.444" y="282" width="2.77778" height="2.77778" fill="#E70505" fill-opacity="0.5"/>
<rect x="302.556" y="284.778" width="2.77778" height="2.77778" fill="#E70505" fill-opacity="0.5"/>
<rect x="288.667" y="282" width="2.77778" height="2.77778" fill="#E70505" fill-opacity="0.5"/>
<rect x="294.222" y="282" width="2.77778" height="2.77778" fill="#E70505" fill-opacity="0.5"/>
<rect x="291.444" y="282" width="2.77778" height="2.77778" fill="#E70505" fill-opacity="0.5"/>
<rect x="294.222" y="290.333" width="2.77778" height="2.77778" fill="#E70505" fill-opacity="0.5"/>
<rect x="294.222" y="290.333" width="2.77778" height="2.77778" fill="#E70505" fill-opacity="0.5"/>
<rect x="299.778" y="287.556" width="2.77778" height="2.77778" fill="#E70505" fill-opacity="0.5"/>
<rect x="297" y="290.333" width="2.77778" height="2.77778" fill="#E70505" fill-opacity="0.5"/>
<rect x="297" y="290.333" width="2.77778" height="2.77778" fill="#E70505" fill-opacity="0.5"/>
<rect x="297" y="290.333" width="2.77778" height="2.77778" fill="#E70505" fill-opacity="0.5"/>
<rect x="283.111" y="287.556" width="2.77778" height="2.77778" fill="#E70505" fill-opacity="0.5"/>
<rect x="280.333" y="287.556" width="2.77778" height="2.77778" fill="#E70505" fill-opacity="0.5"/>
<rect x="277.556" y="307" width="2.77778" height="2.77778" fill="#E70505" fill-opacity="0.5"/>
<rect x="277.556" y="304.222" width="2.77778" height="2.77778" fill="#E70505" fill-opacity="0.5"/>
<rect x="277.556" y="304.222" width="2.77778" height="2.77778" fill="#E70505" fill-opacity="0.5"/>
<rect x="274.778" y="307" width="2.77778" height="2.77778" fill="#E70505" fill-opacity="0.5"/>
<rect x="305.333" y="315.333" width="2.77778" height="5.55556" fill="#E70505" fill-opacity="0.4"/>
<rect x="308.111" y="312.556" width="2.77778" height="2.77778" fill="#E70505" fill-opacity="0.5"/>
<rect x="308.111" y="309.778" width="2.77778" height="2.77778" fill="#E70505" fill-opacity="0.5"/>
<rect x="305.333" y="312.556" width="2.77778" height="2.77778" fill="#E70505" fill-opacity="0.5"/>
<rect x="272" y="304.222" width="2.77778" height="5.55556" fill="#E70505"/>
<rect x="272" y="309.778" width="2.77778" height="5.55556" fill="#E70505"/>
<rect x="274.778" y="315.333" width="2.77778" height="5.55556" fill="#E70505"/>
<rect x="274.778" y="293.111" width="2.77778" height="5.55556" fill="#E70505"/>
<rect x="277.556" y="287.556" width="2.77778" height="5.55556" fill="#E70505"/>
<rect x="277.556" y="320.889" width="2.77778" height="5.55556" fill="#E70505"/>
<rect x="288.667" y="332" width="2.77778" height="5.55556" transform="rotate(-90 288.667 332)" fill="#E70505"/>
<rect x="297" y="284.778" width="2.77778" height="5.55556" transform="rotate(-90 297 284.778)" fill="#E70505"/>
<rect x="297" y="323.667" width="2.77778" height="2.77778" fill="#D50404"/>
<rect x="308.111" y="326.444" width="2.77778" height="2.77778" fill="#D50404"/>
<rect x="299.778" y="329.222" width="2.77778" height="2.77778" fill="#D50404"/>
<rect x="302.556" y="329.222" width="2.77778" height="2.77778" fill="#D50404"/>
<rect x="305.333" y="326.444" width="2.77778" height="2.77778" fill="#D50404"/>
<rect x="297" y="329.222" width="2.77778" height="2.77778" fill="#D50404"/>
<rect x="294.222" y="329.222" width="2.77778" height="2.77778" fill="#D50404"/>
<rect x="308.111" y="304.222" width="2.77778" height="2.77778" fill="#D50404"/>
<rect x="310.889" y="307" width="2.77778" height="2.77778" fill="#D50404"/>
<rect x="308.111" y="315.333" width="2.77778" height="2.77778" fill="#E70505"/>
<rect x="308.111" y="318.111" width="2.77778" height="2.77778" fill="#E70505"/>
<rect x="302.556" y="320.889" width="2.77778" height="2.77778" fill="#E70505"/>
<rect x="297" y="315.333" width="2.77778" height="2.77778" fill="#D50404"/>
<rect x="299.778" y="318.111" width="2.77778" height="2.77778" fill="#D50404"/>
<rect x="308.111" y="307" width="2.77778" height="2.77778" fill="#E70505"/>
<rect x="305.333" y="304.222" width="2.77778" height="2.77778" fill="#D50404"/>
<rect x="305.333" y="298.667" width="2.77778" height="2.77778" fill="#D50404"/>
<rect x="297" y="298.667" width="2.77778" height="2.77778" fill="#D50404"/>
<rect x="302.556" y="301.444" width="2.77778" height="2.77778" fill="#D50404"/>
<rect x="305.333" y="318.111" width="2.77778" height="2.77778" fill="#D50404"/>
<rect x="308.111" y="320.889" width="2.77778" height="2.77778" fill="#D50404"/>
<rect x="310.889" y="320.889" width="2.77778" height="2.77778" fill="#D50404"/>
<rect x="313.667" y="323.667" width="2.77778" height="2.77778" fill="#D50404"/>
<rect x="305.333" y="320.889" width="2.77778" height="2.77778" fill="#D50404"/>
<rect x="308.111" y="323.667" width="2.77778" height="2.77778" fill="#D50404"/>
<rect x="308.111" y="284.778" width="2.77778" height="2.77778" fill="#D50404"/>
<rect x="310.889" y="287.556" width="2.77778" height="2.77778" fill="#D50404"/>
<rect x="302.556" y="282" width="2.77778" height="2.77778" fill="#D50404"/>
<rect x="305.333" y="284.778" width="2.77778" height="2.77778" fill="#D50404"/>
<path d="M260 365H235.5V340H285V365H335V390H260V365Z" fill="#02406D" fill-opacity="0.4"/>
<rect x="335" y="340" width="25" height="25" fill="#02406D" fill-opacity="0.4"/>
<rect x="310" y="365" width="25" height="25" fill="#02406D" fill-opacity="0.4"/>
<rect x="335" y="240" width="25" height="25" fill="#02406D" fill-opacity="0.4"/>
<rect x="310" y="240" width="25" height="25" fill="#02406D" fill-opacity="0.3"/>
<rect x="260" y="215" width="75" height="25" fill="#02406D" fill-opacity="0.2"/>
<rect x="260" y="377" width="13" height="13" fill="#02406D" fill-opacity="0.3"/>
<rect x="210" y="315" width="25" height="25" fill="#02406D" fill-opacity="0.4"/>
</g>
<defs>
<clipPath id="clip0_64_91">
<rect width="600" height="600" fill="white"/>
</clipPath>
</defs>
</svg>
