<svg width="285" height="225" viewBox="0 0 285 225" fill="none" xmlns="http://www.w3.org/2000/svg">
<rect y="40" width="10" height="10" fill="#FF0000"/>
<rect x="40" width="10" height="10" fill="#FF0000"/>
<rect x="30" y="50" width="10" height="10" fill="#FF0000"/>
<rect x="80" y="40" width="10" height="10" fill="#FF0000"/>
<rect x="70" y="50" width="10" height="10" fill="#FF0000"/>
<rect x="70" y="40" width="10" height="10" fill="#FF0000"/>
<rect x="60" y="50" width="10" height="10" fill="#FF0000"/>
<rect x="60" y="30" width="10" height="10" fill="#FF0000"/>
<rect x="50" y="40" width="10" height="10" fill="#FF0000"/>
<rect x="50" y="20" width="10" height="10" fill="#FF0000"/>
<rect x="40" y="30" width="10" height="10" fill="#FF0000"/>
<rect x="50" y="50" width="10" height="10" fill="#FF0000"/>
<rect x="50" y="30" width="10" height="10" fill="#FF0000"/>
<rect x="30" y="30" width="10" height="10" fill="#FF0000"/>
<rect x="10" y="30" width="10" height="10" fill="#FF0000"/>
<rect x="30" y="10" width="10" height="10" fill="#FF0000"/>
<rect x="60" y="60" width="10" height="10" fill="#FF0000"/>
<rect x="60" y="20" width="10" height="10" fill="#FF0000"/>
<rect x="70" y="70" width="10" height="10" fill="#FF0000"/>
<rect x="75" y="60" width="10" height="10" fill="#FF0000"/>
<rect x="70" y="30" width="10" height="10" fill="#FF0000"/>
<rect x="40" y="40" width="10" height="10" fill="#FF0000"/>
<rect x="40" y="80" width="10" height="10" fill="#FF0000"/>
<rect x="50" y="70" width="10" height="10" fill="#FF0000"/>
<rect x="70" y="60" width="10" height="10" fill="#FF0000"/>
<rect x="80" y="50" width="10" height="10" fill="#FF0000"/>
<rect x="75" y="20" width="10" height="10" fill="#FF0000"/>
<rect x="60" y="5" width="10" height="10" fill="#FF0000"/>
<rect x="30" width="10" height="10" fill="#FF0000"/>
<rect x="20" y="5" width="10" height="10" fill="#FF0000"/>
<rect x="20" y="10" width="10" height="10" fill="#FF0000"/>
<rect x="10" y="20" width="10" height="10" fill="#FF0000"/>
<rect x="80" y="30" width="10" height="10" fill="#FF0000"/>
<rect x="60" y="70" width="10" height="10" fill="#FF0000"/>
<rect x="50" y="80" width="10" height="10" fill="#FF0000"/>
<rect x="60" y="75" width="10" height="10" fill="#FF0000"/>
<rect x="30" y="80" width="10" height="10" fill="#FF0000"/>
<rect x="70" y="10" width="10" height="10" fill="#FF0000"/>
<rect x="70" y="10" width="10" height="10" fill="#E70505"/>
<rect x="75" y="20" width="10" height="10" fill="#E70505"/>
<rect x="80" y="30" width="10" height="10" fill="#E70505"/>
<rect x="80" y="40" width="10" height="10" fill="#E70505"/>
<rect x="80" y="50" width="10" height="10" fill="#E70505"/>
<rect x="80" y="60" width="5" height="10" fill="#E70505"/>
<rect x="75" y="70" width="5" height="10" fill="#E70505"/>
<rect x="75" y="40" width="5" height="10" fill="#E70505"/>
<rect x="75" y="30" width="5" height="5" fill="#E70505"/>
<rect x="70" y="35" width="5" height="5" fill="#E70505"/>
<rect x="70" y="40" width="5" height="5" fill="#E70505"/>
<rect x="70" y="45" width="5" height="5" fill="#E70505"/>
<rect x="30" y="70" width="10" height="10" fill="#FF0000"/>
<rect x="50" y="10" width="10" height="10" fill="#FF0000"/>
<rect x="60" y="10" width="10" height="10" fill="#FF0000"/>
<rect x="70" y="20" width="10" height="10" fill="#FF0000"/>
<rect x="60" y="40" width="10" height="10" fill="#FF0000"/>
<rect x="20" y="40" width="10" height="10" fill="#FF0000"/>
<rect x="50" y="60" width="10" height="10" fill="#FF0000"/>
<rect x="30" y="40" width="10" height="10" fill="#FF0000"/>
<rect x="40" y="50" width="10" height="10" fill="#FF0000"/>
<rect x="40" y="70" width="10" height="10" fill="#FF0000"/>
<rect x="20" y="50" width="10" height="10" fill="#FF0000"/>
<rect x="30" y="60" width="10" height="10" fill="#FF0000"/>
<rect x="10" y="70" width="10" height="10" fill="#FF0000"/>
<rect x="20" y="75" width="10" height="10" fill="#FF0000"/>
<rect x="20" y="60" width="10" height="10" fill="#FF0000"/>
<rect x="15" y="60" width="10" height="10" fill="#FF0000"/>
<rect x="20" y="65" width="10" height="10" fill="#FF0000"/>
<rect x="40" y="60" width="10" height="10" fill="#FF0000"/>
<rect x="10" y="50" width="10" height="10" fill="#FF0000"/>
<rect x="30" y="20" width="10" height="10" fill="#FF0000"/>
<rect x="20" y="30" width="10" height="10" fill="#FF0000"/>
<rect x="50" width="10" height="10" fill="#FF0000"/>
<rect x="40" y="10" width="10" height="10" fill="#FF0000"/>
<rect x="40" y="20" width="10" height="10" fill="#FF0000"/>
<rect x="10" y="40" width="10" height="10" fill="#FF0000"/>
<rect x="10" y="10" width="10" height="10" fill="#FF0000"/>
<rect x="5" y="20" width="10" height="10" fill="#FF0000"/>
<rect y="30" width="10" height="10" fill="#FF0000"/>
<rect y="50" width="10" height="10" fill="#FF0000"/>
<rect x="5" y="60" width="10" height="10" fill="#FF0000"/>
<rect x="20" y="20" width="10" height="10" fill="#FF0000"/>
<rect x="55" width="5" height="5" fill="#E70505"/>
<rect x="65" y="5" width="5" height="5" fill="#E70505"/>
<rect x="60" y="5" width="5" height="5" fill="#E70505"/>
<rect x="65" y="10" width="5" height="5" fill="#E70505"/>
<rect x="75" y="20" width="5" height="5" fill="#E70505"/>
<rect x="65" y="40" width="5" height="5" fill="#E70505"/>
<rect x="60" y="45" width="5" height="5" fill="#E70505"/>
<rect x="75" y="50" width="5" height="5" fill="#E70505"/>
<rect x="75" y="65" width="5" height="5" fill="#E70505"/>
<rect x="70" y="55" width="5" height="5" fill="#E70505"/>
<rect x="75" y="60" width="5" height="5" fill="#E70505"/>
<rect x="50" y="35" width="5" height="5" fill="#D50404"/>
<rect x="55" y="40" width="5" height="5" fill="#D50404"/>
<rect x="80" y="25" width="5" height="5" fill="#D50404"/>
<rect x="85" y="30" width="5" height="5" fill="#D50404"/>
<rect x="75" y="15" width="5" height="5" fill="#D50404"/>
<rect x="80" y="20" width="5" height="5" fill="#D50404"/>
<rect x="75" y="10" width="5" height="5" fill="#D50404"/>
<rect x="80" y="30" width="5" height="5" fill="#D50404"/>
<rect x="85" y="45" width="5" height="5" fill="#D50404"/>
<rect x="85" y="40" width="5" height="5" fill="#D50404"/>
<rect x="85" y="50" width="5" height="5" fill="#D50404"/>
<rect x="85" y="55" width="5" height="5" fill="#D50404"/>
<rect x="85" y="35" width="5" height="5" fill="#D50404"/>
<rect x="75" y="40" width="5" height="5" fill="#D50404"/>
<rect x="80" y="45" width="5" height="5" fill="#D50404"/>
<rect x="70" y="55" width="5" height="5" fill="#D50404"/>
<rect x="75" y="60" width="5" height="5" fill="#D50404"/>
<rect x="70" y="75" width="5" height="5" fill="#D50404"/>
<rect x="75" y="70" width="5" height="5" fill="#D50404"/>
<rect x="75" y="65" width="5" height="5" fill="#D50404"/>
<rect x="80" y="65" width="5" height="5" fill="#D50404"/>
<rect x="60" y="75" width="5" height="10" fill="#E70505"/>
<rect x="55" y="75" width="5" height="10" fill="#E70505"/>
<rect x="70" y="60" width="5" height="10" fill="#E70505"/>
<rect y="30" width="5" height="10" fill="#E70505"/>
<rect x="5" y="30" width="5" height="10" fill="#E70505" fill-opacity="0.4"/>
<rect x="5" y="40" width="5" height="10" fill="#E70505" fill-opacity="0.4"/>
<rect x="5" y="50" width="5" height="10" fill="#E70505" fill-opacity="0.4"/>
<rect x="20" y="74" width="5" height="10" fill="#E70505" fill-opacity="0.4"/>
<rect x="15" y="75" width="5" height="5" fill="#E70505" fill-opacity="0.4"/>
<rect x="10" y="65" width="5" height="5" fill="#E70505" fill-opacity="0.4"/>
<rect x="10" y="20" width="5" height="5" fill="#E70505" fill-opacity="0.4"/>
<rect x="5" y="45" width="5" height="5" fill="#E70505" fill-opacity="0.5"/>
<rect x="50" y="40" width="5" height="5" fill="#E70505" fill-opacity="0.5"/>
<rect x="75" y="35" width="5" height="5" fill="#E70505" fill-opacity="0.5"/>
<rect x="75" y="55" width="5" height="5" fill="#E70505" fill-opacity="0.5"/>
<rect x="70" y="50" width="5" height="5" fill="#E70505" fill-opacity="0.5"/>
<rect x="75" y="25" width="5" height="5" fill="#E70505" fill-opacity="0.5"/>
<rect x="70" y="20" width="5" height="5" fill="#E70505" fill-opacity="0.5"/>
<rect x="60" y="10" width="5" height="5" fill="#E70505" fill-opacity="0.5"/>
<rect x="35" width="5" height="5" fill="#E70505" fill-opacity="0.5"/>
<rect x="55" y="5" width="5" height="5" fill="#E70505" fill-opacity="0.5"/>
<rect x="30" width="5" height="5" fill="#E70505" fill-opacity="0.5"/>
<rect x="40" width="5" height="5" fill="#E70505" fill-opacity="0.5"/>
<rect x="35" width="5" height="5" fill="#E70505" fill-opacity="0.5"/>
<rect x="40" y="15" width="5" height="5" fill="#E70505" fill-opacity="0.5"/>
<rect x="40" y="15" width="5" height="5" fill="#E70505" fill-opacity="0.5"/>
<rect x="50" y="10" width="5" height="5" fill="#E70505" fill-opacity="0.5"/>
<rect x="45" y="15" width="5" height="5" fill="#E70505" fill-opacity="0.5"/>
<rect x="45" y="15" width="5" height="5" fill="#E70505" fill-opacity="0.5"/>
<rect x="45" y="15" width="5" height="5" fill="#E70505" fill-opacity="0.5"/>
<rect x="20" y="10" width="5" height="5" fill="#E70505" fill-opacity="0.5"/>
<rect x="15" y="10" width="5" height="5" fill="#E70505" fill-opacity="0.5"/>
<rect x="10" y="45" width="5" height="5" fill="#E70505" fill-opacity="0.5"/>
<rect x="10" y="40" width="5" height="5" fill="#E70505" fill-opacity="0.5"/>
<rect x="10" y="40" width="5" height="5" fill="#E70505" fill-opacity="0.5"/>
<rect x="5" y="45" width="5" height="5" fill="#E70505" fill-opacity="0.5"/>
<rect x="60" y="60" width="5" height="10" fill="#E70505" fill-opacity="0.4"/>
<rect x="65" y="55" width="5" height="5" fill="#E70505" fill-opacity="0.5"/>
<rect x="65" y="50" width="5" height="5" fill="#E70505" fill-opacity="0.5"/>
<rect x="60" y="55" width="5" height="5" fill="#E70505" fill-opacity="0.5"/>
<rect y="40" width="5" height="10" fill="#E70505"/>
<rect y="50" width="5" height="10" fill="#E70505"/>
<rect x="5" y="60" width="5" height="10" fill="#E70505"/>
<rect x="5" y="20" width="5" height="10" fill="#E70505"/>
<rect x="10" y="10" width="5" height="10" fill="#E70505"/>
<rect x="10" y="70" width="5" height="10" fill="#E70505"/>
<rect x="30" y="90" width="5" height="10" transform="rotate(-90 30 90)" fill="#E70505"/>
<rect x="45" y="5" width="5" height="10" transform="rotate(-90 45 5)" fill="#E70505"/>
<rect x="45" y="75" width="5" height="5" fill="#D50404"/>
<rect x="65" y="80" width="5" height="5" fill="#D50404"/>
<rect x="50" y="85" width="5" height="5" fill="#D50404"/>
<rect x="55" y="85" width="5" height="5" fill="#D50404"/>
<rect x="60" y="80" width="5" height="5" fill="#D50404"/>
<rect x="45" y="85" width="5" height="5" fill="#D50404"/>
<rect x="40" y="85" width="5" height="5" fill="#D50404"/>
<rect x="65" y="40" width="5" height="5" fill="#D50404"/>
<rect x="70" y="45" width="5" height="5" fill="#D50404"/>
<rect x="65" y="60" width="5" height="5" fill="#E70505"/>
<rect x="65" y="65" width="5" height="5" fill="#E70505"/>
<rect x="55" y="70" width="5" height="5" fill="#E70505"/>
<rect x="45" y="60" width="5" height="5" fill="#D50404"/>
<rect x="50" y="65" width="5" height="5" fill="#D50404"/>
<rect x="65" y="45" width="5" height="5" fill="#E70505"/>
<rect x="60" y="40" width="5" height="5" fill="#D50404"/>
<rect x="60" y="30" width="5" height="5" fill="#D50404"/>
<rect x="45" y="30" width="5" height="5" fill="#D50404"/>
<rect x="55" y="35" width="5" height="5" fill="#D50404"/>
<rect x="60" y="65" width="5" height="5" fill="#D50404"/>
<rect x="65" y="70" width="5" height="5" fill="#D50404"/>
<rect x="70" y="70" width="5" height="5" fill="#D50404"/>
<rect x="75" y="75" width="5" height="5" fill="#D50404"/>
<rect x="60" y="70" width="5" height="5" fill="#D50404"/>
<rect x="65" y="75" width="5" height="5" fill="#D50404"/>
<rect x="65" y="5" width="5" height="5" fill="#D50404"/>
<rect x="70" y="10" width="5" height="5" fill="#D50404"/>
<rect x="55" width="5" height="5" fill="#D50404"/>
<rect x="60" y="5" width="5" height="5" fill="#D50404"/>
<rect x="25" y="185" width="40" height="40" fill="#4BB4FF"/>
<rect x="65" y="185" width="40" height="40" fill="#4BB4FF"/>
<rect x="105" y="185" width="40" height="40" fill="#4BB4FF"/>
<rect x="145" y="185" width="40" height="40" fill="#4BB4FF"/>
<rect x="185" y="185" width="40" height="40" fill="#4BB4FF"/>
<rect x="225" y="185" width="40" height="40" fill="#4BB4FF"/>
<rect x="45" y="145" width="40" height="40" fill="#4BB4FF"/>
<rect x="65" y="105" width="40" height="40" fill="#4BB4FF"/>
<rect x="85" y="65" width="40" height="40" fill="#4BB4FF"/>
<rect x="105" y="25" width="40" height="40" fill="#4BB4FF" fill-opacity="0.18"/>
<rect x="145" y="25" width="40" height="40" fill="#4BB4FF" fill-opacity="0.18"/>
<rect x="125" y="65" width="40" height="40" fill="#4BB4FF"/>
<rect x="165" y="65" width="40" height="40" fill="#4BB4FF"/>
<rect x="105" y="105" width="40" height="40" fill="#4BB4FF"/>
<rect x="145" y="105" width="40" height="40" fill="#4BB4FF"/>
<rect x="185" y="105" width="40" height="40" fill="#4BB4FF"/>
<rect x="85" y="145" width="40" height="40" fill="#4BB4FF"/>
<rect x="125" y="145" width="40" height="40" fill="#4BB4FF"/>
<rect x="165" y="145" width="40" height="40" fill="#4BB4FF"/>
<rect x="205" y="145" width="40" height="40" fill="#4BB4FF"/>
<rect x="105" y="65" width="20" height="20" fill="#DFF1FF"/>
<rect x="85" y="65" width="20" height="20" fill="#DFF1FF"/>
<rect x="75" y="105" width="20" height="20" fill="#DFF1FF"/>
<rect x="65" y="125" width="10" height="10" fill="#DFF1FF"/>
<rect x="85" y="115" width="10" height="10" fill="#4BB4FF"/>
<rect x="215" y="125" width="10" height="10" fill="#DFF1FF"/>
<rect x="65" y="105" width="20" height="20" fill="#DFF1FF"/>
<rect x="205" y="105" width="20" height="20" fill="#DFF1FF"/>
<rect x="194" y="115" width="10" height="10" fill="#4BB4FF"/>
<rect x="85" y="85" width="20" height="20" fill="#DFF1FF"/>
<rect x="125" y="65" width="20" height="20" fill="#DFF1FF"/>
<rect x="125" y="85" width="20" height="20" fill="#DFF1FF"/>
<rect x="95" y="75" width="20" height="20" fill="#DFF1FF"/>
<rect x="175" y="75" width="20" height="20" fill="#DFF1FF"/>
<rect x="135" y="94" width="20" height="20" fill="#DFF1FF"/>
<rect x="145" y="65" width="20" height="20" fill="#DFF1FF"/>
<rect x="145" y="85" width="20" height="20" fill="#DFF1FF"/>
<rect x="165" y="65" width="20" height="20" fill="#DFF1FF"/>
<rect x="185" y="65" width="20" height="20" fill="#DFF1FF"/>
<rect x="185" y="85" width="20" height="20" fill="#DFF1FF"/>
<rect x="135" y="85" width="10" height="10" fill="#4BB4FF"/>
<rect x="45" y="215" width="10" height="10" fill="#035D9F"/>
<rect x="125" y="75" width="10" height="10" fill="#4BB4FF"/>
<rect x="184" y="75" width="10" height="10" fill="#4BB4FF"/>
<rect x="125" y="95" width="10" height="10" fill="#4BB4FF"/>
<rect x="135" y="104" width="10" height="10" fill="#4BB4FF"/>
<rect x="125" y="85" width="10" height="10" fill="#4BB4FF"/>
<rect x="135" y="65" width="10" height="10" fill="#4BB4FF"/>
<rect x="155" y="75" width="10" height="10" fill="#4BB4FF"/>
<rect x="105" y="95" width="10" height="10" fill="#EFF8FF"/>
<rect x="115" y="105" width="10" height="10" fill="#EFF8FF"/>
<rect x="165" y="95" width="10" height="10" fill="#EFF8FF"/>
<rect x="145" y="105" width="10" height="10" fill="#EFF8FF"/>
<rect x="185" y="115" width="10" height="10" fill="#EFF8FF"/>
<rect x="175" y="105" width="10" height="10" fill="#EFF8FF"/>
<rect x="135" y="95" width="10" height="10" fill="#EFF8FF"/>
<rect x="135" y="75" width="10" height="10" fill="#EFF8FF"/>
<rect x="125" y="65" width="10" height="10" fill="#EFF8FF"/>
<rect x="165" y="65" width="10" height="10" fill="#EFF8FF"/>
<rect x="105" y="25" width="10" height="10" fill="#EFF8FF"/>
<rect x="115" y="25" width="10" height="10" fill="#EFF8FF"/>
<rect x="125" y="25" width="10" height="10" fill="#EFF8FF"/>
<rect x="135" y="25" width="10" height="10" fill="#EFF8FF"/>
<rect x="145" y="25" width="10" height="10" fill="#EFF8FF"/>
<rect x="155" y="25" width="10" height="10" fill="#EFF8FF"/>
<rect x="165" y="25" width="10" height="10" fill="#EFF8FF"/>
<rect x="175" y="25" width="10" height="10" fill="#EFF8FF"/>
<rect x="105" y="35" width="10" height="10" fill="#EFF8FF"/>
<rect x="115" y="35" width="10" height="10" fill="#EFF8FF"/>
<rect x="85" y="65" width="10" height="10" fill="#EFF8FF"/>
<rect x="95" y="65" width="10" height="10" fill="#EFF8FF"/>
<rect x="95" y="85" width="10" height="10" fill="#EFF8FF"/>
<rect x="105" y="85" width="10" height="10" fill="#EFF8FF"/>
<rect x="115" y="85" width="10" height="10" fill="#EFF8FF"/>
<rect x="165" y="85" width="10" height="10" fill="#EFF8FF"/>
<rect x="125" y="85" width="10" height="10" fill="#EFF8FF"/>
<rect x="85" y="75" width="10" height="10" fill="#EFF8FF"/>
<rect x="95" y="75" width="10" height="10" fill="#EFF8FF"/>
<rect x="105" y="75" width="10" height="10" fill="#EFF8FF"/>
<rect x="115" y="75" width="10" height="10" fill="#EFF8FF"/>
<rect x="95" y="105" width="10" height="10" fill="#EFF8FF"/>
<rect x="95" y="115" width="10" height="10" fill="#EFF8FF"/>
<rect x="115" y="55" width="10" height="10" fill="#EFF8FF"/>
<rect x="105" y="55" width="10" height="10" fill="#EFF8FF"/>
<rect x="105" y="45" width="10" height="10" fill="#EFF8FF"/>
<rect x="115" y="65" width="10" height="10" fill="#EFF8FF"/>
<rect x="125" y="35" width="10" height="10" fill="#EFF8FF"/>
<rect x="115" y="45" width="10" height="10" fill="#EFF8FF"/>
<rect x="85" y="95" width="10" height="10" fill="#EFF8FF"/>
<rect x="85" y="85" width="10" height="10" fill="#EFF8FF"/>
<rect x="65" y="105" width="10" height="10" fill="#EFF8FF"/>
<rect x="65" y="115" width="10" height="10" fill="#EFF8FF"/>
<rect x="175" y="55" width="10" height="10" fill="#EFF8FF"/>
<rect x="165" y="45" width="10" height="10" fill="#EFF8FF"/>
<rect x="155" y="75" width="10" height="10" fill="#EFF8FF" fill-opacity="0.3"/>
<rect x="155" y="75" width="10" height="10" fill="#EFF8FF" fill-opacity="0.3"/>
<rect x="135" y="65" width="10" height="10" fill="#EFF8FF" fill-opacity="0.3"/>
<rect x="135" y="65" width="10" height="10" fill="#EFF8FF" fill-opacity="0.3"/>
<rect x="135" y="65" width="10" height="10" fill="#EFF8FF" fill-opacity="0.3"/>
<rect x="125" y="75" width="10" height="10" fill="#EFF8FF" fill-opacity="0.3"/>
<rect x="125" y="75" width="10" height="10" fill="#EFF8FF" fill-opacity="0.3"/>
<rect x="125" y="75" width="10" height="10" fill="#EFF8FF" fill-opacity="0.3"/>
<rect x="135" y="85" width="10" height="10" fill="#EFF8FF" fill-opacity="0.3"/>
<rect x="135" y="85" width="10" height="10" fill="#EFF8FF" fill-opacity="0.3"/>
<rect x="184" y="75" width="10" height="10" fill="#EFF8FF" fill-opacity="0.3"/>
<rect x="184" y="75" width="10" height="10" fill="#EFF8FF" fill-opacity="0.3"/>
<rect x="175" y="95" width="10" height="10" fill="#EFF8FF" fill-opacity="0.3"/>
<rect x="165" y="105" width="10" height="10" fill="#EFF8FF" fill-opacity="0.3"/>
<rect x="185" y="105" width="10" height="10" fill="#EFF8FF" fill-opacity="0.3"/>
<rect x="175" y="95" width="10" height="10" fill="#EFF8FF" fill-opacity="0.3"/>
<rect x="185" y="105" width="10" height="10" fill="#EFF8FF" fill-opacity="0.3"/>
<rect x="175" y="95" width="10" height="10" fill="#EFF8FF" fill-opacity="0.3"/>
<rect x="185" y="105" width="10" height="10" fill="#EFF8FF" fill-opacity="0.3"/>
<rect x="195" y="115" width="10" height="10" fill="#EFF8FF" fill-opacity="0.3"/>
<rect x="205" y="125" width="10" height="10" fill="#EFF8FF" fill-opacity="0.3"/>
<rect x="215" y="135" width="10" height="10" fill="#EFF8FF" fill-opacity="0.3"/>
<rect x="175" y="115" width="10" height="10" fill="#EFF8FF" fill-opacity="0.3"/>
<rect x="135" y="105" width="10" height="10" fill="#EFF8FF" fill-opacity="0.3"/>
<rect x="105" y="105" width="10" height="10" fill="#EFF8FF" fill-opacity="0.3"/>
<rect x="85" y="115" width="10" height="10" fill="#EFF8FF" fill-opacity="0.3"/>
<rect x="95" y="125" width="10" height="10" fill="#EFF8FF" fill-opacity="0.3"/>
<rect x="145" y="115" width="10" height="10" fill="#EFF8FF" fill-opacity="0.3"/>
<rect x="125" y="95" width="10" height="10" fill="#EFF8FF" fill-opacity="0.3"/>
<rect x="135" y="105" width="10" height="10" fill="#EFF8FF" fill-opacity="0.3"/>
<rect x="145" y="115" width="10" height="10" fill="#EFF8FF" fill-opacity="0.3"/>
<rect x="105" y="105" width="10" height="10" fill="#EFF8FF" fill-opacity="0.3"/>
<rect x="115" y="115" width="10" height="10" fill="#EFF8FF" fill-opacity="0.3"/>
<rect x="125" y="95" width="10" height="10" fill="#EFF8FF" fill-opacity="0.3"/>
<rect x="115" y="95" width="10" height="10" fill="#EFF8FF" fill-opacity="0.3"/>
<rect x="205" y="105" width="10" height="10" fill="#EFF8FF"/>
<rect x="195" y="95" width="10" height="10" fill="#EFF8FF"/>
<rect x="215" y="125" width="10" height="10" fill="#EFF8FF"/>
<rect x="195" y="105" width="10" height="10" fill="#EFF8FF"/>
<rect x="155" y="65" width="10" height="10" fill="#EFF8FF"/>
<rect x="175" y="85" width="10" height="10" fill="#EFF8FF"/>
<rect x="165" y="75" width="10" height="10" fill="#EFF8FF"/>
<rect x="155" y="85" width="10" height="10" fill="#EFF8FF"/>
<rect x="145" y="75" width="10" height="10" fill="#EFF8FF"/>
<rect x="145" y="65" width="10" height="10" fill="#EFF8FF"/>
<rect x="135" y="55" width="10" height="10" fill="#EFF8FF"/>
<rect x="175" y="65" width="10" height="10" fill="#EFF8FF"/>
<rect x="185" y="65" width="10" height="10" fill="#EFF8FF"/>
<rect x="195" y="65" width="10" height="10" fill="#EFF8FF"/>
<rect x="145" y="35" width="10" height="10" fill="#EFF8FF"/>
<rect x="155" y="35" width="10" height="10" fill="#EFF8FF"/>
<rect x="5" y="205" width="20" height="20" fill="#4BB4FF"/>
<rect x="265" y="205" width="20" height="20" fill="#4BB4FF"/>
<rect x="265" y="205" width="20" height="20" fill="#0172C3"/>
<rect x="245" y="205" width="20" height="20" fill="#0172C3"/>
<rect x="245" y="185" width="20" height="20" fill="#0172C3"/>
<rect x="225" y="205" width="20" height="20" fill="#0172C3"/>
<rect x="205" y="205" width="20" height="20" fill="#0172C3"/>
<rect x="185" y="205" width="20" height="20" fill="#0172C3"/>
<rect x="165" y="205" width="20" height="20" fill="#0172C3"/>
<rect x="145" y="205" width="20" height="20" fill="#0172C3"/>
<rect x="125" y="205" width="20" height="20" fill="#0172C3"/>
<rect x="25" y="205" width="20" height="20" fill="#0172C3"/>
<rect x="5" y="205" width="20" height="20" fill="#0172C3"/>
<rect x="85" y="205" width="20" height="20" fill="#0172C3"/>
<rect x="65" y="205" width="20" height="20" fill="#0172C3"/>
<rect x="225" y="185" width="20" height="20" fill="#0172C3"/>
<rect x="205" y="185" width="20" height="20" fill="#0172C3"/>
<rect x="225" y="165" width="20" height="20" fill="#0172C3"/>
<rect x="225" y="145" width="20" height="20" fill="#0172C3"/>
<rect x="205" y="165" width="20" height="20" fill="#0172C3"/>
<rect x="215" y="155" width="20" height="20" fill="#0172C3"/>
<rect x="185" y="185" width="20" height="20" fill="#0172C3"/>
<rect x="175" y="195" width="20" height="20" fill="#0172C3"/>
<rect x="145" y="195" width="20" height="20" fill="#0172C3"/>
<rect x="75" y="195" width="20" height="20" fill="#0172C3"/>
<rect x="115" y="215" width="10" height="10" fill="#0172C3"/>
<rect x="155" y="195" width="10" height="10" fill="#0172C3"/>
<rect x="145" y="185" width="10" height="10" fill="#0172C3"/>
<rect x="195" y="175" width="10" height="10" fill="#0172C3"/>
<rect x="175" y="155" width="10" height="10" fill="#0172C3"/>
<rect x="185" y="175" width="10" height="10" fill="#0172C3"/>
<rect x="95" y="185" width="10" height="10" fill="#0172C3"/>
<rect x="85" y="175" width="10" height="10" fill="#0172C3"/>
<rect x="165" y="175" width="10" height="10" fill="#0172C3"/>
<rect x="185" y="165" width="10" height="10" fill="#0172C3"/>
<rect x="275" y="215" width="10" height="10" fill="#035D9F"/>
<rect x="275" y="205" width="10" height="10" fill="#035D9F"/>
<rect x="265" y="215" width="10" height="10" fill="#035D9F"/>
<rect x="255" y="215" width="10" height="10" fill="#035D9F"/>
<rect x="265" y="205" width="10" height="10" fill="#035D9F"/>
<rect x="255" y="195" width="10" height="10" fill="#035D9F"/>
<rect x="255" y="185" width="10" height="10" fill="#035D9F"/>
<rect x="245" y="215" width="10" height="10" fill="#035D9F"/>
<rect x="235" y="215" width="10" height="10" fill="#035D9F"/>
<rect x="225" y="215" width="10" height="10" fill="#035D9F"/>
<rect x="215" y="215" width="10" height="10" fill="#035D9F"/>
<rect x="205" y="215" width="10" height="10" fill="#035D9F"/>
<rect x="185" y="215" width="10" height="10" fill="#035D9F"/>
<rect x="175" y="215" width="10" height="10" fill="#035D9F"/>
<rect x="165" y="215" width="10" height="10" fill="#035D9F"/>
<rect x="135" y="215" width="10" height="10" fill="#035D9F"/>
<rect x="195" y="175" width="10" height="10" fill="#035D9F"/>
<rect x="205" y="145" width="10" height="10" fill="#035D9F"/>
<rect x="165" y="205" width="10" height="10" fill="#035D9F"/>
<rect x="125" y="215" width="10" height="10" fill="#035D9F"/>
<rect x="155" y="215" width="10" height="10" fill="#035D9F"/>
<rect x="145" y="215" width="10" height="10" fill="#035D9F"/>
<rect x="155" y="205" width="10" height="10" fill="#035D9F"/>
<rect x="145" y="185" width="10" height="10" fill="#035D9F"/>
<rect x="115" y="215" width="10" height="10" fill="#035D9F"/>
<rect x="195" y="195" width="10" height="10" fill="#035D9F"/>
<rect x="205" y="175" width="10" height="10" fill="#035D9F"/>
<rect x="205" y="165" width="10" height="10" fill="#035D9F"/>
<rect x="165" y="205" width="10" height="10" fill="#035D9F"/>
<rect x="135" y="195" width="10" height="10" fill="#035D9F"/>
<rect x="95" y="215" width="10" height="10" fill="#035D9F"/>
<rect x="95" y="215" width="10" height="10" fill="#035D9F"/>
<rect x="85" y="215" width="10" height="10" fill="#035D9F"/>
<rect x="75" y="215" width="10" height="10" fill="#035D9F"/>
<rect x="35" y="205" width="10" height="10" fill="#035D9F"/>
<rect x="65" y="215" width="10" height="10" fill="#035D9F"/>
<rect x="85" y="205" width="10" height="10" fill="#035D9F"/>
<rect x="75" y="205" width="10" height="10" fill="#035D9F"/>
<rect x="35" y="215" width="10" height="10" fill="#035D9F"/>
<rect x="25" y="215" width="10" height="10" fill="#035D9F"/>
<rect x="15" y="215" width="10" height="10" fill="#035D9F"/>
<rect x="5" y="215" width="10" height="10" fill="#035D9F"/>
<rect x="245" y="205" width="10" height="10" fill="#035D9F"/>
<rect x="255" y="205" width="10" height="10" fill="#035D9F"/>
<rect x="235" y="205" width="10" height="10" fill="#035D9F"/>
<rect x="225" y="205" width="10" height="10" fill="#035D9F"/>
<rect x="215" y="205" width="10" height="10" fill="#035D9F"/>
<rect x="235" y="195" width="10" height="10" fill="#035D9F"/>
<rect x="245" y="195" width="10" height="10" fill="#035D9F"/>
<rect x="225" y="195" width="10" height="10" fill="#035D9F"/>
<rect x="215" y="195" width="10" height="10" fill="#035D9F"/>
<rect x="225" y="185" width="10" height="10" fill="#035D9F"/>
<rect x="215" y="175" width="10" height="10" fill="#035D9F"/>
<rect x="215" y="185" width="10" height="10" fill="#035D9F"/>
<rect x="205" y="205" width="10" height="10" fill="#035D9F"/>
<rect x="195" y="215" width="10" height="10" fill="#035D9F"/>
<rect x="180" y="205" width="10" height="10" fill="#035D9F"/>
<rect x="185" y="205" width="10" height="10" fill="#035D9F"/>
<rect x="185" y="195" width="10" height="10" fill="#035D9F"/>
<rect x="205" y="185" width="10" height="10" fill="#035D9F"/>
<rect x="175" y="205" width="10" height="10" fill="#035D9F"/>
<rect x="245" y="185" width="10" height="10" fill="#035D9F"/>
<rect x="235" y="145" width="10" height="10" fill="#035D9F"/>
<rect x="235" y="155" width="10" height="10" fill="#035D9F"/>
<rect x="225" y="155" width="10" height="10" fill="#035D9F"/>
<rect x="235" y="165" width="10" height="10" fill="#035D9F"/>
<rect x="215" y="165" width="10" height="10" fill="#035D9F"/>
<rect x="225" y="145" width="10" height="10" fill="#035D9F"/>
<rect x="235" y="145" width="10" height="10" fill="#02406D" fill-opacity="0.4"/>
<rect x="235" y="155" width="10" height="10" fill="#02406D" fill-opacity="0.4"/>
<rect x="235" y="165" width="10" height="10" fill="#02406D" fill-opacity="0.4"/>
<rect x="225" y="145" width="10" height="10" fill="#02406D" fill-opacity="0.4"/>
<rect x="255" y="185" width="10" height="10" fill="#02406D" fill-opacity="0.4"/>
<rect x="255" y="195" width="10" height="10" fill="#02406D" fill-opacity="0.4"/>
<rect x="245" y="185" width="10" height="10" fill="#02406D" fill-opacity="0.4"/>
<rect x="225" y="185" width="10" height="10" fill="#02406D" fill-opacity="0.4"/>
<rect x="225" y="195" width="10" height="10" fill="#02406D" fill-opacity="0.4"/>
<rect x="215" y="215" width="10" height="10" fill="#02406D" fill-opacity="0.4"/>
<rect x="215" y="185" width="10" height="10" fill="#02406D" fill-opacity="0.4"/>
<rect x="275" y="205" width="10" height="10" fill="#02406D" fill-opacity="0.4"/>
<rect x="265" y="205" width="10" height="10" fill="#02406D" fill-opacity="0.4"/>
<rect x="275" y="215" width="10" height="10" fill="#02406D" fill-opacity="0.4"/>
<rect x="265" y="215" width="10" height="10" fill="#02406D" fill-opacity="0.4"/>
<rect x="255" y="205" width="10" height="10" fill="#02406D" fill-opacity="0.4"/>
<rect x="245" y="205" width="10" height="10" fill="#02406D" fill-opacity="0.4"/>
<rect x="255" y="215" width="10" height="10" fill="#02406D" fill-opacity="0.4"/>
<rect x="245" y="215" width="10" height="10" fill="#02406D" fill-opacity="0.4"/>
<rect x="235" y="205" width="10" height="10" fill="#02406D" fill-opacity="0.4"/>
<rect x="225" y="205" width="10" height="10" fill="#02406D" fill-opacity="0.4"/>
<rect x="205" y="205" width="10" height="10" fill="#02406D" fill-opacity="0.4"/>
<rect x="235" y="175" width="10" height="10" fill="#02406D" fill-opacity="0.4"/>
<rect x="195" y="195" width="10" height="10" fill="#02406D" fill-opacity="0.4"/>
<rect x="205" y="215" width="10" height="10" fill="#02406D" fill-opacity="0.4"/>
<rect x="195" y="215" width="10" height="10" fill="#02406D" fill-opacity="0.4"/>
<rect x="185" y="215" width="10" height="10" fill="#02406D" fill-opacity="0.4"/>
<rect x="175" y="215" width="10" height="10" fill="#02406D" fill-opacity="0.4"/>
<rect x="165" y="215" width="10" height="10" fill="#02406D" fill-opacity="0.4"/>
<rect x="155" y="215" width="10" height="10" fill="#02406D" fill-opacity="0.4"/>
<rect x="185" y="205" width="10" height="10" fill="#02406D" fill-opacity="0.4"/>
<rect x="175" y="205" width="10" height="10" fill="#02406D" fill-opacity="0.4"/>
<rect x="155" y="195" width="10" height="10" fill="#02406D" fill-opacity="0.4"/>
<rect x="215" y="165" width="10" height="10" fill="#02406D" fill-opacity="0.4"/>
<rect x="215" y="175" width="10" height="10" fill="#02406D" fill-opacity="0.4"/>
<rect x="205" y="165" width="10" height="10" fill="#02406D" fill-opacity="0.4"/>
<rect x="215" y="205" width="10" height="10" fill="#02406D" fill-opacity="0.4"/>
<rect x="145" y="215" width="10" height="10" fill="#02406D" fill-opacity="0.4"/>
<rect x="135" y="215" width="10" height="10" fill="#02406D" fill-opacity="0.4"/>
<rect x="125" y="215" width="10" height="10" fill="#02406D" fill-opacity="0.4"/>
<rect x="235" y="215" width="10" height="10" fill="#02406D" fill-opacity="0.4"/>
<rect x="225" y="215" width="10" height="10" fill="#02406D" fill-opacity="0.4"/>
</svg>
